<svg xmlns="http://www.w3.org/2000/svg" viewBox="0 0 1600 1000" role="img" aria-labelledby="title desc">
  <title id="title">KND Kindness Wins smile lockup</title>
  <desc id="desc">A bold outlined KND smile mark above the phrase Kindness Wins.</desc>
  <rect width="1600" height="1000" fill="#F8F6F2"/>
  <path d="M69 714V0H226V230L316 321L531 0H728L422 432L701 714H505L226 418V714Z" fill="#171511" transform="translate(483.545 318.000) scale(0.270000 -0.270000)"/>
  <path d="M69 714V0H216V478H218L515 0H672V714H525V235H523L225 714Z" fill="#171511" transform="translate(693.485 318.000) scale(0.270000 -0.270000)"/>
  <path d="M226 132V582H338Q396 582 435.5 565.5Q475 549 499.0 518.0Q523 487 533.5 443.5Q544 400 544 346Q544 287 529.0 246.0Q514 205 489.0 179.5Q464 154 432.0 143.0Q400 132 366 132ZM69 714V0H377Q459 0 519.5 27.5Q580 55 620.5 103.0Q661 151 681.0 217.0Q701 283 701 361Q701 450 676.5 516.0Q652 582 608.5 626.0Q565 670 505.5 692.0Q446 714 377 714Z" fill="#171511" transform="translate(908.555 318.000) scale(0.270000 -0.270000)"/>
  <path d="M 570 486 C 682 580, 918 580, 1030 486" fill="none" stroke="#171511" stroke-width="28" stroke-linecap="round"/>
  <path d="M69 714V0H226V230L316 321L531 0H728L422 432L701 714H505L226 418V714Z" fill="#171511" transform="translate(275.306 828.000) scale(0.126000 -0.126000)"/>
  <path d="M69 714V0H226V714Z" fill="#171511" transform="translate(368.278 828.000) scale(0.126000 -0.126000)"/>
  <path d="M69 714V0H216V478H218L515 0H672V714H525V235H523L225 714Z" fill="#171511" transform="translate(407.448 828.000) scale(0.126000 -0.126000)"/>
  <path d="M226 132V582H338Q396 582 435.5 565.5Q475 549 499.0 518.0Q523 487 533.5 443.5Q544 400 544 346Q544 287 529.0 246.0Q514 205 489.0 179.5Q464 154 432.0 143.0Q400 132 366 132ZM69 714V0H377Q459 0 519.5 27.5Q580 55 620.5 103.0Q661 151 681.0 217.0Q701 283 701 361Q701 450 676.5 516.0Q652 582 608.5 626.0Q565 670 505.5 692.0Q446 714 377 714Z" fill="#171511" transform="translate(502.814 828.000) scale(0.126000 -0.126000)"/>
  <path d="M69 714V0H216V478H218L515 0H672V714H525V235H523L225 714Z" fill="#171511" transform="translate(598.180 828.000) scale(0.126000 -0.126000)"/>
  <path d="M69 714V0H611V132H226V307H572V429H226V582H603V714Z" fill="#171511" transform="translate(693.546 828.000) scale(0.126000 -0.126000)"/>
  <path d="M176 237H24Q23 171 48.0 123.0Q73 75 115.5 44.0Q158 13 213.5 -1.5Q269 -16 328 -16Q401 -16 456.5 1.0Q512 18 549.5 48.5Q587 79 606.0 121.0Q625 163 625 212Q625 272 599.5 310.5Q574 349 539.0 372.0Q504 395 468.5 405.5Q433 416 413 420Q346 437 304.5 448.0Q263 459 239.5 470.0Q216 481 208.0 494.0Q200 507 200 528Q200 551 210.0 566.0Q220 581 235.5 591.0Q251 601 270.0 605.0Q289 609 308 609Q337 609 361.5 604.0Q386 599 405.0 587.0Q424 575 435.5 554.0Q447 533 449 501H601Q601 563 577.5 606.5Q554 650 514.0 678.0Q474 706 422.5 718.5Q371 731 315 731Q267 731 219.0 718.0Q171 705 133.0 678.0Q95 651 71.5 610.5Q48 570 48 515Q48 466 66.5 431.5Q85 397 115.0 374.0Q145 351 183.0 336.5Q221 322 261 312Q300 301 338.0 292.0Q376 283 406.0 271.0Q436 259 454.5 241.0Q473 223 473 194Q473 167 459.0 149.5Q445 132 424.0 122.0Q403 112 379.0 108.5Q355 105 334 105Q303 105 274.0 112.5Q245 120 223.5 135.5Q202 151 189.0 176.0Q176 201 176 237Z" fill="#171511" transform="translate(777.194 828.000) scale(0.126000 -0.126000)"/>
  <path d="M176 237H24Q23 171 48.0 123.0Q73 75 115.5 44.0Q158 13 213.5 -1.5Q269 -16 328 -16Q401 -16 456.5 1.0Q512 18 549.5 48.5Q587 79 606.0 121.0Q625 163 625 212Q625 272 599.5 310.5Q574 349 539.0 372.0Q504 395 468.5 405.5Q433 416 413 420Q346 437 304.5 448.0Q263 459 239.5 470.0Q216 481 208.0 494.0Q200 507 200 528Q200 551 210.0 566.0Q220 581 235.5 591.0Q251 601 270.0 605.0Q289 609 308 609Q337 609 361.5 604.0Q386 599 405.0 587.0Q424 575 435.5 554.0Q447 533 449 501H601Q601 563 577.5 606.5Q554 650 514.0 678.0Q474 706 422.5 718.5Q371 731 315 731Q267 731 219.0 718.0Q171 705 133.0 678.0Q95 651 71.5 610.5Q48 570 48 515Q48 466 66.5 431.5Q85 397 115.0 374.0Q145 351 183.0 336.5Q221 322 261 312Q300 301 338.0 292.0Q376 283 406.0 271.0Q436 259 454.5 241.0Q473 223 473 194Q473 167 459.0 149.5Q445 132 424.0 122.0Q403 112 379.0 108.5Q355 105 334 105Q303 105 274.0 112.5Q245 120 223.5 135.5Q202 151 189.0 176.0Q176 201 176 237Z" fill="#171511" transform="translate(860.968 828.000) scale(0.126000 -0.126000)"/>
  <path d="M749 0 941 714H787L670 222H668L546 714H399L275 228H273L160 714H3L192 0H351L470 486H472L593 0Z" fill="#171511" transform="translate(981.770 828.000) scale(0.126000 -0.126000)"/>
  <path d="M69 714V0H226V714Z" fill="#171511" transform="translate(1102.714 828.000) scale(0.126000 -0.126000)"/>
  <path d="M69 714V0H216V478H218L515 0H672V714H525V235H523L225 714Z" fill="#171511" transform="translate(1141.884 828.000) scale(0.126000 -0.126000)"/>
  <path d="M176 237H24Q23 171 48.0 123.0Q73 75 115.5 44.0Q158 13 213.5 -1.5Q269 -16 328 -16Q401 -16 456.5 1.0Q512 18 549.5 48.5Q587 79 606.0 121.0Q625 163 625 212Q625 272 599.5 310.5Q574 349 539.0 372.0Q504 395 468.5 405.5Q433 416 413 420Q346 437 304.5 448.0Q263 459 239.5 470.0Q216 481 208.0 494.0Q200 507 200 528Q200 551 210.0 566.0Q220 581 235.5 591.0Q251 601 270.0 605.0Q289 609 308 609Q337 609 361.5 604.0Q386 599 405.0 587.0Q424 575 435.5 554.0Q447 533 449 501H601Q601 563 577.5 606.5Q554 650 514.0 678.0Q474 706 422.5 718.5Q371 731 315 731Q267 731 219.0 718.0Q171 705 133.0 678.0Q95 651 71.5 610.5Q48 570 48 515Q48 466 66.5 431.5Q85 397 115.0 374.0Q145 351 183.0 336.5Q221 322 261 312Q300 301 338.0 292.0Q376 283 406.0 271.0Q436 259 454.5 241.0Q473 223 473 194Q473 167 459.0 149.5Q445 132 424.0 122.0Q403 112 379.0 108.5Q355 105 334 105Q303 105 274.0 112.5Q245 120 223.5 135.5Q202 151 189.0 176.0Q176 201 176 237Z" fill="#171511" transform="translate(1237.250 828.000) scale(0.126000 -0.126000)"/>
</svg>
