<svg xmlns="http://www.w3.org/2000/svg" viewBox="0 0 1600 1000" role="img" aria-labelledby="title desc">
  <title id="title">KND smile lockup</title>
  <desc id="desc">A bold outlined KND wordmark with a restrained smile curve beneath it.</desc>
  <rect width="1600" height="1000" fill="#F8F6F2"/>
  <path d="M69 714V0H226V230L316 321L531 0H728L422 432L701 714H505L226 418V714Z" fill="#171511" transform="translate(436.885 410.000) scale(0.310000 -0.310000)"/>
  <path d="M69 714V0H216V478H218L515 0H672V714H525V235H523L225 714Z" fill="#171511" transform="translate(677.705 410.000) scale(0.310000 -0.310000)"/>
  <path d="M226 132V582H338Q396 582 435.5 565.5Q475 549 499.0 518.0Q523 487 533.5 443.5Q544 400 544 346Q544 287 529.0 246.0Q514 205 489.0 179.5Q464 154 432.0 143.0Q400 132 366 132ZM69 714V0H377Q459 0 519.5 27.5Q580 55 620.5 103.0Q661 151 681.0 217.0Q701 283 701 361Q701 450 676.5 516.0Q652 582 608.5 626.0Q565 670 505.5 692.0Q446 714 377 714Z" fill="#171511" transform="translate(924.415 410.000) scale(0.310000 -0.310000)"/>
  <path d="M 540 670 C 660 768, 940 768, 1060 670" fill="none" stroke="#171511" stroke-width="30" stroke-linecap="round"/>
</svg>
